<?xml version="1.0" encoding="utf-8"?>
<!-- Generator: Adobe Illustrator 27.0.1, SVG Export Plug-In . SVG Version: 6.00 Build 0)  -->
<svg version="1.1" id="Layer_2" xmlns="http://www.w3.org/2000/svg"
	xmlns:xlink="http://www.w3.org/1999/xlink" x="0px" y="0px"
	viewBox="0 0 24 24" style="enableBackground:new 0 0 24 24;" xml:space="preserve">
<style type="text/css">
	.st0{fill:none;stroke:#000000;stroke-width:1.5;stroke-miterlimit:10;}
</style>
<g>
	<path className="st0" d="M14.92,14.69c0-0.33,0.17-0.63,0.44-0.81c1.63-1.09,2.71-2.94,2.71-5.05c0-3.37-2.74-6.09-6.11-6.07
		c-3.23,0.02-5.9,2.61-6.02,5.84c-0.08,2.19,1,4.13,2.68,5.26c0.29,0.2,0.46,0.52,0.46,0.87v1.63c0,0.42,0.29,1.2,0.68,1.42
		c0.15,0.09,0.25,0.24,0.29,0.41l0.5,2.39c0.09,0.38,0.42,0.64,0.8,0.64h1.29c0.38,0,0.72-0.26,0.8-0.64l0.51-2.44
		c0.03-0.16,0.14-0.29,0.27-0.37c0.39-0.22,0.68-1,0.68-1.42L14.92,14.69z"/>
	<line className="st0" x1="10.01" y1="18.11" x2="13.96" y2="18.11"/>
</g>
</svg>