<?xml version="1.0" encoding="utf-8"?>
<!-- Generator: Adobe Illustrator 27.0.1, SVG Export Plug-In . SVG Version: 6.00 Build 0)  -->
<svg version="1.1" id="Layer_2" xmlns="http://www.w3.org/2000/svg"
	xmlns:xlink="http://www.w3.org/1999/xlink" x="0px" y="0px"
	viewBox="0 0 24 24" style="enableBackground:new 0 0 24 24;" xml:space="preserve">
<style type="text/css">
	.st0{fill:none;stroke:#000000;stroke-width:1.5;stroke-miterlimit:10;}
	.st1{fill:none;stroke:#000000;stroke-linecap:round;stroke-miterlimit:10;}
</style>
<g>
	<path className="st0" d="M14.7,16.42c0-0.3,0.16-0.58,0.41-0.74c1.51-1.01,2.5-2.72,2.5-4.67c0-3.11-2.53-5.63-5.65-5.61
		C8.97,5.42,6.5,7.81,6.4,10.8c-0.07,2.02,0.93,3.82,2.47,4.86c0.27,0.18,0.43,0.49,0.43,0.81v1.51c0,0.39,0.27,1.1,0.62,1.31
		c0.14,0.08,0.23,0.22,0.27,0.38l0.47,2.21c0.08,0.35,0.39,0.59,0.74,0.59h1.19c0.35,0,0.66-0.24,0.74-0.59l0.47-2.25
		c0.03-0.14,0.13-0.26,0.25-0.34c0.36-0.2,0.63-0.93,0.63-1.31L14.7,16.42z"/>
	<line className="st0" x1="10.16" y1="19.58" x2="13.82" y2="19.58"/>
</g>
<line className="st1" x1="4.31" y1="10.99" x2="1.89" y2="10.99"/>
<line className="st1" x1="6.56" y1="5.56" x2="4.85" y2="3.85"/>
<line className="st1" x1="12" y1="3.3" x2="12" y2="0.88"/>
<line className="st1" x1="17.44" y1="5.56" x2="19.15" y2="3.85"/>
<line className="st1" x1="19.69" y1="10.99" x2="22.11" y2="10.99"/>
<line className="st1" x1="17.44" y1="16.43" x2="19.15" y2="18.14"/>
<line className="st1" x1="6.56" y1="16.43" x2="4.85" y2="18.14"/>
</svg>