<?xml version="1.0" encoding="utf-8"?>
<!-- Generator: Adobe Illustrator 28.0.0, SVG Export Plug-In . SVG Version: 6.00 Build 0)  -->
<svg version="1.1" id="Layer_1" xmlns="http://www.w3.org/2000/svg" xmlns:xlink="http://www.w3.org/1999/xlink" x="0px" y="0px"
	 viewBox="0 0 1024 1024" style="enable-background:new 0 0 1024 1024;" xml:space="preserve">
<style type="text/css">
	.st0{fill:#FFFFFF;}
	.st1{fill:none;stroke:#000000;stroke-width:9;stroke-miterlimit:10;}
</style>
<path d="M1007.1,829.9H16.9c-9.33,0-16.9-7.56-16.9-16.9V210.99c0-9.33,7.56-16.9,16.9-16.9h990.21c9.33,0,16.9,7.56,16.9,16.9
	v602.01C1024,822.34,1016.44,829.9,1007.1,829.9z"/>
<g>
	<path class="st0" d="M598.5,361.96L326.45,686.59h-95.72l71.55-213.64L125.29,686.59H29.56l105.11-324.63h84.62l-89.72,236.3
		l194.23-236.3h86.94l-80.94,236.3l183.6-236.3H598.5z"/>
</g>
<g>
	<path class="st0" d="M994.44,361.96L722.39,686.59h-95.72l71.55-213.64L521.23,686.59H425.5l105.11-324.63h84.62l-89.72,236.3
		l194.23-236.3h86.94l-80.94,236.3l183.6-236.3H994.44z"/>
</g>
<line class="st1" x1="702.17" y1="232.49" x2="278.71" y2="755.95"/>
</svg>
