<?xml version="1.0" encoding="UTF-8"?>
<svg enableBackground="new 0 0 24 24" version="1.1" viewBox="0 0 24 24" xml:space="preserve"
	xmlns="http://www.w3.org/2000/svg">
<style type="text/css">
	.st0{fill:none;stroke:#231F20;stroke-width:1.5;stroke-linecap:round;stroke-linejoin:round;}
</style>
<g transform="translate(2.5 1.5)">
	<path className="st0" d="m18.3 6.1-0.6-1.1c-0.5-0.9-1.7-1.2-2.6-0.7-0.4 0.3-1 0.3-1.4 0.2-0.5-0.1-0.9-0.4-1.2-0.9-0.2-0.3-0.3-0.6-0.3-0.9 0-0.5-0.2-1-0.5-1.4-0.4-0.4-0.9-0.6-1.4-0.6h-1.3c-0.5 0-1 0.2-1.3 0.6s-0.6 0.9-0.6 1.4c0 1-0.9 1.9-1.9 1.9-0.3 0-0.6-0.1-0.9-0.3-0.9-0.5-2.1-0.2-2.6 0.7l-0.7 1.1c-0.5 0.9-0.2 2.1 0.7 2.6 0.6 0.3 1 1 1 1.7s-0.4 1.3-1 1.7c-0.9 0.5-1.2 1.7-0.7 2.6l0.6 1.1c0.2 0.4 0.7 0.8 1.2 0.9s1 0.1 1.5-0.2c0.4-0.3 1-0.3 1.4-0.2s0.9 0.5 1.2 0.9c0.2 0.3 0.3 0.6 0.3 0.9-0.1 1 0.8 1.9 1.8 1.9h1.3c1.1 0 1.9-0.9 1.9-1.9 0-0.5 0.2-1 0.6-1.4s0.8-0.6 1.4-0.6c0.3 0 0.6 0.1 0.9 0.3 0.9 0.5 2.1 0.2 2.6-0.7l0.7-1.1c0.3-0.4 0.3-1 0.2-1.4-0.1-0.5-0.5-0.9-0.9-1.2s-0.8-0.7-0.9-1.2-0.1-1 0.2-1.4c0.2-0.3 0.4-0.5 0.7-0.7 0.8-0.5 1.1-1.7 0.6-2.6z"/>
	<circle className="st0" cx="9.7" cy="10.4" r="2.6"/>
</g>
</svg>